<?xml version="1.0" encoding="UTF-8"?>
<svg width="190px" height="30px" viewBox="0 0 190 30" version="1.1" xmlns="http://www.w3.org/2000/svg" xmlns:xlink="http://www.w3.org/1999/xlink">
    <title>Podcast App Logo</title>
    <g id="🎩-Website-Header" stroke="none" stroke-width="1" fill="none" fill-rule="evenodd">
        <g id="Header-Mobile-Expanded" transform="translate(-19, -124)">
            <g id="Header" transform="translate(0, 105)">
                <g id="Podcast-App-Logo" transform="translate(19, 19)">
                    <path d="M44.0542462,18.5846154 L44.0542462,15.610989 L47.4872133,15.610989 C48.1802535,15.610989 48.7645026,15.4739927 49.2399605,15.2 C49.7154184,14.9260073 50.0780557,14.5472527 50.3278726,14.0637363 C50.5776894,13.5802198 50.7025979,13.0241758 50.7025979,12.3956044 C50.7025979,11.767033 50.5776894,11.210989 50.3278726,10.7274725 C50.0780557,10.243956 49.7154184,9.86923077 49.2399605,9.6032967 C48.7645026,9.33736264 48.1802535,9.2043956 47.4872133,9.2043956 L44.0542462,9.2043956 L44.0542462,6.23076923 L47.1971034,6.23076923 C48.6798872,6.23076923 49.9410594,6.47252747 50.9806198,6.95604396 C52.0201803,7.43956044 52.8139532,8.12857143 53.3619385,9.02307692 C53.9099239,9.91758242 54.1839165,10.9772894 54.1839165,12.2021978 L54.1839165,12.589011 C54.1839165,13.8139194 53.9099239,14.8736264 53.3619385,15.7681319 C52.8139532,16.6626374 52.0201803,17.3556777 50.9806198,17.8472527 C49.9410594,18.3388278 48.6798872,18.5846154 47.1971034,18.5846154 L44.0542462,18.5846154 Z M41.1047957,24 L41.1047957,6.23076923 L44.5377627,6.23076923 L44.5377627,24 L41.1047957,24 Z M61.8119147,24.4593407 C60.6514751,24.4593407 59.6280319,24.2739927 58.741585,23.9032967 C57.8551381,23.5326007 57.1056876,23.0289377 56.4932334,22.3923077 C55.8807792,21.7556777 55.4174092,21.0344322 55.1031235,20.2285714 C54.7888378,19.4227106 54.6316949,18.5846154 54.6316949,17.7142857 L54.6316949,17.2065934 C54.6316949,16.3040293 54.7968964,15.4457875 55.1272993,14.6318681 C55.4577022,13.8179487 55.9331601,13.092674 56.5536729,12.456044 C57.1741858,11.8194139 57.9276656,11.3197802 58.8141125,10.9571429 C59.7005594,10.5945055 60.6998268,10.4131868 61.8119147,10.4131868 C62.9240026,10.4131868 63.92327,10.5945055 64.8097169,10.9571429 C65.6961638,11.3197802 66.4496436,11.8194139 67.0701565,12.456044 C67.6906693,13.092674 68.1620978,13.8179487 68.4844422,14.6318681 C68.8067865,15.4457875 68.9679586,16.3040293 68.9679586,17.2065934 L68.9679586,17.7142857 C68.9679586,18.5846154 68.8108158,19.4227106 68.4965301,20.2285714 C68.1822444,21.0344322 67.7188744,21.7556777 67.1064202,22.3923077 C66.493966,23.0289377 65.7445154,23.5326007 64.8580685,23.9032967 C63.9716217,24.2739927 62.956237,24.4593407 61.8119147,24.4593407 Z M61.8119147,21.5824176 C62.6338927,21.5824176 63.326933,21.4010989 63.8910356,21.0384615 C64.4551381,20.6758242 64.8822444,20.1842491 65.1723543,19.5637363 C65.4624641,18.9432234 65.6075191,18.2380952 65.6075191,17.4483516 C65.6075191,16.6424908 65.4584348,15.929304 65.1602663,15.3087912 C64.8620978,14.6882784 64.426933,14.1967033 63.8547718,13.8340659 C63.2826107,13.4714286 62.6016583,13.2901099 61.8119147,13.2901099 C61.0221711,13.2901099 60.3412187,13.4714286 59.7690576,13.8340659 C59.1968964,14.1967033 58.7577022,14.6882784 58.4514751,15.3087912 C58.145248,15.929304 57.9921345,16.6424908 57.9921345,17.4483516 C57.9921345,18.2380952 58.1412187,18.9432234 58.4393872,19.5637363 C58.7375557,20.1842491 59.1686913,20.6758242 59.7327938,21.0384615 C60.2968964,21.4010989 60.9899367,21.5824176 61.8119147,21.5824176 Z M76.3058469,24.4351648 C75.3871656,24.4351648 74.5410117,24.2659341 73.7673854,23.9274725 C72.993759,23.589011 72.3248945,23.1135531 71.760792,22.5010989 C71.1966894,21.8886447 70.7615246,21.1754579 70.4552975,20.3615385 C70.1490703,19.547619 69.9959568,18.6652015 69.9959568,17.7142857 L69.9959568,17.2065934 C69.9959568,16.2717949 70.145041,15.3934066 70.4432095,14.5714286 C70.741378,13.7494505 71.1604257,13.0322344 71.7003524,12.4197802 C72.2402791,11.807326 72.8930264,11.3278388 73.6585942,10.9813187 C74.4241619,10.6347985 75.2743451,10.4615385 76.2091436,10.4615385 C77.2406454,10.4615385 78.1472388,10.6831502 78.9289238,11.1263736 C79.7106088,11.5695971 80.3351509,12.2344322 80.8025502,13.1208791 C81.2699495,14.007326 81.5278249,15.1194139 81.5761766,16.4571429 L80.5849678,15.2967033 L80.5849678,6.35164835 L83.9454073,6.35164835 L83.9454073,24 L81.2860667,24 L81.2860667,18.4153846 L81.8662865,18.4153846 C81.8179348,19.7531136 81.5439421,20.8692308 81.0443084,21.7637363 C80.5446747,22.6582418 79.8878982,23.3271062 79.0739788,23.7703297 C78.2600594,24.2135531 77.3373487,24.4351648 76.3058469,24.4351648 Z M77.0552975,21.6065934 C77.7161033,21.6065934 78.3204989,21.4575092 78.8684843,21.1593407 C79.4164696,20.8611722 79.8556638,20.4260073 80.1860667,19.8538462 C80.5164696,19.281685 80.6816711,18.6087912 80.6816711,17.8351648 L80.6816711,16.8681319 C80.6816711,16.0945055 80.5124403,15.4457875 80.1739788,14.921978 C79.8355172,14.3981685 79.3922938,13.9952381 78.8443084,13.7131868 C78.2963231,13.4311355 77.6999861,13.2901099 77.0552975,13.2901099 C76.3300227,13.2901099 75.6893634,13.46337 75.1333194,13.8098901 C74.5772755,14.1564103 74.1421106,14.643956 73.8278249,15.2725275 C73.5135392,15.9010989 73.3563964,16.6344322 73.3563964,17.4725275 C73.3563964,18.3106227 73.5175685,19.0399267 73.8399128,19.6604396 C74.1622572,20.2809524 74.6014513,20.7604396 75.1574953,21.0989011 C75.7135392,21.4373626 76.3461399,21.6065934 77.0552975,21.6065934 Z M92.5404385,24.4593407 C91.3961161,24.4593407 90.4089366,24.2659341 89.5789,23.8791209 C88.7488634,23.4923077 88.0558231,22.9765568 87.4997791,22.3318681 C86.9437352,21.6871795 86.5287168,20.9619048 86.2547242,20.156044 C85.9807315,19.3501832 85.8437352,18.5282051 85.8437352,17.6901099 L85.8437352,17.2307692 C85.8437352,16.3443223 85.9847608,15.4941392 86.2668121,14.6802198 C86.5488634,13.8663004 86.9719403,13.1410256 87.5360429,12.5043956 C88.1001454,11.8677656 88.797215,11.3600733 89.6272516,10.9813187 C90.4572883,10.6025641 91.4202919,10.4131868 92.5162626,10.4131868 C93.660585,10.4131868 94.6840282,10.6347985 95.5865923,11.078022 C96.4891564,11.5212454 97.2104018,12.1377289 97.7503286,12.9274725 C98.2902553,13.7172161 98.5924531,14.6358974 98.656922,15.6835165 L95.3931857,15.6835165 C95.3125996,15.0065934 95.026519,14.4424908 94.534944,13.9912088 C94.0433689,13.5399267 93.3704751,13.3142857 92.5162626,13.3142857 C91.7748707,13.3142857 91.1583872,13.4915751 90.6668121,13.8461538 C90.175237,14.2007326 89.8085703,14.6882784 89.5668121,15.3087912 C89.3250538,15.929304 89.2041747,16.6424908 89.2041747,17.4483516 C89.2041747,18.221978 89.3210245,18.9230769 89.5547242,19.5516484 C89.7884238,20.1802198 90.1510612,20.6717949 90.6426363,21.0263736 C91.1342114,21.3809524 91.7668121,21.5582418 92.5404385,21.5582418 C93.1206582,21.5582418 93.6202919,21.4534799 94.0393396,21.243956 C94.4583872,21.0344322 94.7928194,20.7443223 95.0426363,20.3736264 C95.2924531,20.0029304 95.449596,19.5838828 95.5140648,19.1164835 L98.7778011,19.1164835 C98.7133322,20.1802198 98.4030758,21.110989 97.8470319,21.9087912 C97.2909879,22.7065934 96.5576546,23.3311355 95.6470319,23.7824176 C94.7364092,24.2336996 93.700878,24.4593407 92.5404385,24.4593407 Z M108.364041,24 L108.364041,20.1076923 L107.807997,20.1076923 L107.807997,15.7802198 C107.807997,15.0227106 107.622649,14.4586081 107.251953,14.0879121 C106.881257,13.7172161 106.309096,13.5318681 105.53547,13.5318681 C105.132539,13.5318681 104.649023,13.5399267 104.08492,13.556044 C103.520818,13.5721612 102.952686,13.5923077 102.380525,13.6164835 C101.808363,13.6406593 101.296642,13.6688645 100.84536,13.7010989 L100.84536,10.8483516 C101.216056,10.8161172 101.635103,10.7838828 102.102503,10.7516484 C102.569902,10.7194139 103.049389,10.6992674 103.540964,10.6912088 C104.032539,10.6831502 104.495909,10.6791209 104.931074,10.6791209 C106.28492,10.6791209 107.409096,10.8564103 108.303601,11.210989 C109.198107,11.5655678 109.87503,12.1216117 110.334371,12.8791209 C110.793711,13.63663 111.023382,14.6278388 111.023382,15.8527473 L111.023382,24 L108.364041,24 Z M104.133272,24.3384615 C103.182356,24.3384615 102.34829,24.1692308 101.631074,23.8307692 C100.913858,23.4923077 100.357814,23.0087912 99.9629421,22.3802198 C99.5680703,21.7516484 99.3706344,20.9941392 99.3706344,20.1076923 C99.3706344,19.1406593 99.6083633,18.3509158 100.083821,17.7384615 C100.559279,17.1260073 101.228144,16.6666667 102.090415,16.3604396 C102.952686,16.0542125 103.964041,15.9010989 105.124481,15.9010989 L108.170634,15.9010989 L108.170634,17.9076923 L105.076129,17.9076923 C104.302503,17.9076923 103.710195,18.0970696 103.299206,18.4758242 C102.888217,18.8545788 102.682722,19.3421245 102.682722,19.9384615 C102.682722,20.5347985 102.888217,21.018315 103.299206,21.389011 C103.710195,21.759707 104.302503,21.9450549 105.076129,21.9450549 C105.543528,21.9450549 105.974664,21.8604396 106.369536,21.6912088 C106.764407,21.521978 107.09481,21.2318681 107.360744,20.8208791 C107.626678,20.4098901 107.775763,19.8498168 107.807997,19.1406593 L108.629975,20.0835165 C108.549389,21.0021978 108.327777,21.7758242 107.96514,22.4043956 C107.602503,23.032967 107.102869,23.5124542 106.466239,23.8428571 C105.829609,24.1732601 105.051953,24.3384615 104.133272,24.3384615 Z M118.337094,24.410989 C116.531966,24.410989 115.11768,24.0282051 114.094237,23.2626374 C113.070794,22.4970696 112.534896,21.4373626 112.486545,20.0835165 L115.508523,20.0835165 C115.556874,20.5347985 115.806691,20.9457875 116.257973,21.3164835 C116.709255,21.6871795 117.418413,21.8725275 118.385446,21.8725275 C119.191307,21.8725275 119.831966,21.7274725 120.307424,21.4373626 C120.782882,21.1472527 121.020611,20.752381 121.020611,20.2527473 C121.020611,19.8175824 120.839292,19.4710623 120.476655,19.2131868 C120.114017,18.9553114 119.497534,18.7860806 118.627204,18.7054945 L117.466764,18.5846154 C116.000098,18.4234432 114.871893,18.0043956 114.082149,17.3274725 C113.292405,16.6505495 112.897534,15.7479853 112.897534,14.6197802 C112.897534,13.7172161 113.123175,12.959707 113.574457,12.3472527 C114.025739,11.7347985 114.650281,11.2714286 115.448083,10.9571429 C116.245885,10.6428571 117.160537,10.4857143 118.192039,10.4857143 C119.803761,10.4857143 121.109255,10.840293 122.108523,11.5494505 C123.10779,12.2586081 123.6316,13.2981685 123.679951,14.6681319 L120.657973,14.6681319 C120.625739,14.2168498 120.400098,13.8300366 119.98105,13.5076923 C119.562003,13.185348 118.957607,13.0241758 118.167863,13.0241758 C117.458706,13.0241758 116.91072,13.1611722 116.523907,13.4351648 C116.137094,13.7091575 115.943688,14.0637363 115.943688,14.4989011 C115.943688,14.9179487 116.10083,15.240293 116.415116,15.4659341 C116.729402,15.6915751 117.241123,15.8446886 117.950281,15.9252747 L119.11072,16.0461538 C120.657973,16.207326 121.870794,16.6344322 122.749182,17.3274725 C123.62757,18.0205128 124.066764,18.9553114 124.066764,20.1318681 C124.066764,21.0021978 123.829035,21.7556777 123.353578,22.3923077 C122.87812,23.0289377 122.213285,23.5245421 121.359072,23.8791209 C120.50486,24.2336996 119.497534,24.410989 118.337094,24.410989 Z M131.501356,24.1692308 C130.292565,24.1692308 129.297327,24.0120879 128.515642,23.6978022 C127.733957,23.3835165 127.149708,22.8516484 126.762894,22.1021978 C126.376081,21.3527473 126.182675,20.3413919 126.182675,19.0681319 L126.20685,7.17362637 L129.349708,7.17362637 L129.325532,19.2857143 C129.325532,19.9304029 129.498792,20.4260073 129.845312,20.7725275 C130.191832,21.1190476 130.687437,21.2923077 131.332125,21.2923077 L133.38707,21.2923077 L133.38707,24.1692308 L131.501356,24.1692308 Z M124.103554,13.3384615 L124.103554,10.8725275 L133.38707,10.8725275 L133.38707,13.3384615 L124.103554,13.3384615 Z M137.860649,24 L143.880429,6.35164835 L149.48922,6.35164835 L155.678231,24 L152.148561,24 L146.902407,8.6967033 L148.135374,9.22857143 L145.113396,9.22857143 L146.370539,8.6967033 L141.293616,24 L137.860649,24 Z M142.067242,19.3098901 L143.155154,16.4087912 L150.311198,16.4087912 L151.374935,19.3098901 L142.067242,19.3098901 Z M156.972164,28.8351648 L156.972164,10.8725275 L159.631504,10.8725275 L159.631504,16.5296703 L159.220515,16.5054945 C159.284984,15.1677656 159.563006,14.047619 160.054581,13.1450549 C160.546156,12.2424908 161.202933,11.5695971 162.024911,11.1263736 C162.846889,10.6831502 163.76557,10.4615385 164.780955,10.4615385 C165.715753,10.4615385 166.557878,10.6307692 167.307328,10.9692308 C168.056779,11.3076923 168.701468,11.7831502 169.241394,12.3956044 C169.781321,13.0080586 170.196339,13.7212454 170.486449,14.5351648 C170.776559,15.3490842 170.921614,16.2234432 170.921614,17.1582418 L170.921614,17.6659341 C170.921614,18.6168498 170.780589,19.4992674 170.498537,20.3131868 C170.216486,21.1271062 169.805497,21.8443223 169.26557,22.4648352 C168.725643,23.085348 168.076926,23.5688645 167.319416,23.9153846 C166.561907,24.2619048 165.715753,24.4351648 164.780955,24.4351648 C163.797805,24.4351648 162.89927,24.2296703 162.08535,23.8186813 C161.271431,23.4076923 160.614654,22.7710623 160.115021,21.9087912 C159.615387,21.0465201 159.333336,19.9304029 159.268867,18.5604396 L160.332603,20.1802198 L160.332603,28.8351648 L156.972164,28.8351648 Z M163.934801,21.6065934 C164.660076,21.6065934 165.292676,21.429304 165.832603,21.0747253 C166.37253,20.7201465 166.795607,20.2245421 167.101834,19.5879121 C167.408061,18.9512821 167.561175,18.2300366 167.561175,17.4241758 C167.561175,16.5860806 167.408061,15.8608059 167.101834,15.2483516 C166.795607,14.6358974 166.37253,14.1564103 165.832603,13.8098901 C165.292676,13.46337 164.660076,13.2901099 163.934801,13.2901099 C163.273995,13.2901099 162.66557,13.4351648 162.109526,13.7252747 C161.553482,14.0153846 161.1022,14.4424908 160.75568,15.0065934 C160.40916,15.570696 160.2359,16.247619 160.2359,17.0373626 L160.2359,18.0043956 C160.2359,18.7619048 160.413189,19.4065934 160.767768,19.9384615 C161.122347,20.4703297 161.581687,20.8813187 162.14579,21.1714286 C162.709893,21.4615385 163.30623,21.6065934 163.934801,21.6065934 Z M172.819942,28.8351648 L172.819942,10.8725275 L175.479283,10.8725275 L175.479283,16.5296703 L175.068294,16.5054945 C175.132762,15.1677656 175.410784,14.047619 175.90236,13.1450549 C176.393935,12.2424908 177.050711,11.5695971 177.872689,11.1263736 C178.694667,10.6831502 179.613349,10.4615385 180.628733,10.4615385 C181.563532,10.4615385 182.405656,10.6307692 183.155107,10.9692308 C183.904557,11.3076923 184.549246,11.7831502 185.089173,12.3956044 C185.629099,13.0080586 186.044118,13.7212454 186.334228,14.5351648 C186.624338,15.3490842 186.769393,16.2234432 186.769393,17.1582418 L186.769393,17.6659341 C186.769393,18.6168498 186.628367,19.4992674 186.346316,20.3131868 C186.064264,21.1271062 185.653275,21.8443223 185.113349,22.4648352 C184.573422,23.085348 183.924704,23.5688645 183.167195,23.9153846 C182.409686,24.2619048 181.563532,24.4351648 180.628733,24.4351648 C179.645583,24.4351648 178.747048,24.2296703 177.933129,23.8186813 C177.119209,23.4076923 176.462433,22.7710623 175.962799,21.9087912 C175.463165,21.0465201 175.181114,19.9304029 175.116645,18.5604396 L176.180382,20.1802198 L176.180382,28.8351648 L172.819942,28.8351648 Z M179.782579,21.6065934 C180.507854,21.6065934 181.140455,21.429304 181.680382,21.0747253 C182.220308,20.7201465 182.643385,20.2245421 182.949612,19.5879121 C183.255839,18.9512821 183.408953,18.2300366 183.408953,17.4241758 C183.408953,16.5860806 183.255839,15.8608059 182.949612,15.2483516 C182.643385,14.6358974 182.220308,14.1564103 181.680382,13.8098901 C181.140455,13.46337 180.507854,13.2901099 179.782579,13.2901099 C179.121773,13.2901099 178.513349,13.4351648 177.957305,13.7252747 C177.401261,14.0153846 176.949979,14.4424908 176.603458,15.0065934 C176.256938,15.570696 176.083678,16.247619 176.083678,17.0373626 L176.083678,18.0043956 C176.083678,18.7619048 176.260968,19.4065934 176.615546,19.9384615 C176.970125,20.4703297 177.429466,20.8813187 177.993568,21.1714286 C178.557671,21.4615385 179.154008,21.6065934 179.782579,21.6065934 Z" id="Combined-Shape" fill="#27313A" fill-rule="nonzero"></path>
                    <path d="M19.4377957,1.64835165 C25.5129279,1.64835165 30.4377957,6.5732194 30.4377957,12.6483516 L30.4377957,18.1208791 C30.4377957,24.1960114 25.5129279,29.1208791 19.4377957,29.1208791 L14,29.1208791 C7.92486775,29.1208791 3,24.1960114 3,18.1208791 L3,12.6483516 C3,6.5732194 7.92486775,1.64835165 14,1.64835165 L19.4377957,1.64835165 Z M24.7573145,15.2499356 C24.3725583,15.2499356 24.0606518,15.562237 24.0606518,15.9474803 L24.05967,16.0688214 C23.9949548,20.065318 20.7391614,23.2851133 16.7322952,23.2851133 C12.6849556,23.2851133 9.40393864,19.9999431 9.40393864,15.9474803 L9.40384531,15.9359451 C9.39769322,15.5560222 9.08818453,15.2499356 8.70727586,15.2499356 C8.32251963,15.2499356 8.01061308,15.562237 8.01061308,15.9474803 C8.01061308,20.7704296 11.9154432,24.6802026 16.7322952,24.6802026 C21.5491472,24.6802026 25.4539773,20.7704296 25.4539773,15.9474803 C25.4539773,15.562237 25.1420708,15.2499356 24.7573145,15.2499356 Z M16.7188978,6.5440419 C13.9072177,6.5440419 11.6279006,8.82624425 11.6279006,11.6414835 L11.6279006,15.9340659 C11.6279006,18.7493052 13.9072177,21.0315076 16.7188978,21.0315076 C19.530578,21.0315076 21.8098951,18.7493052 21.8098951,15.9340659 L21.8098951,11.6414835 C21.8098951,8.82624425 19.530578,6.5440419 16.7188978,6.5440419 Z M16.7188978,7.93913118 C18.7610655,7.93913118 20.4165695,9.59673078 20.4165695,11.6414835 L20.4160741,15.9952911 C20.3834208,18.0118049 18.7406438,19.6364183 16.7188978,19.6364183 C14.6767302,19.6364183 13.0212262,17.9788187 13.0212262,15.9340659 L13.0217215,11.5802584 C13.0543749,9.56374455 14.6971518,7.93913118 16.7188978,7.93913118 Z M15.6471089,9.38787775 C15.0847729,9.38787775 14.6289095,9.84431822 14.6289095,10.4073661 C14.6289095,10.9704139 15.0847729,11.4268544 15.6471089,11.4268544 C16.209445,11.4268544 16.6653084,10.9704139 16.6653084,10.4073661 C16.6653084,9.84431822 16.209445,9.38787775 15.6471089,9.38787775 Z" id="Combined-Shape" fill="#354FEE"></path>
                </g>
            </g>
        </g>
    </g>
</svg>